HIERARCHY
ROOT Hips
{
    OFFSET 0.000000 0.000000 0.000000
    CHANNELS 6 Xposition Yposition Zposition Zrotation Xrotation Yrotation
    JOINT Spine
    {
        OFFSET -0.000000 14.517291 0.000000
        CHANNELS 3 Zrotation Xrotation Yrotation
        JOINT Spine1
        {
            OFFSET -0.000000 37.558300 0.000000
            CHANNELS 3 Zrotation Xrotation Yrotation
            JOINT Neck
            {
                OFFSET -0.000000 37.404057 3.400369
                CHANNELS 3 Zrotation Xrotation Yrotation
                JOINT Head
                {
                    OFFSET -0.000000 24.785618 -3.540803
                    CHANNELS 3 Zrotation Xrotation Yrotation
                    End Site
                    {
                        OFFSET -0.000000 35.408028 0.000000
                    }
                }
            }
            JOINT LeftShoulder
            {
                OFFSET 6.992933 33.973492 -0.192664
                CHANNELS 3 Zrotation Xrotation Yrotation
                JOINT LeftArm
                {
                    OFFSET 21.527611 0.000000 0.000000
                    CHANNELS 3 Zrotation Xrotation Yrotation
                    JOINT LeftForeArm
                    {
                        OFFSET 56.353916 0.000000 0.000000
                        CHANNELS 3 Zrotation Xrotation Yrotation
                        JOINT LeftHand
                        {
                            OFFSET 47.774071 0.000000 0.000000
                            CHANNELS 3 Zrotation Xrotation Yrotation
                            End Site
                            {
                                OFFSET 26.556021 0.000000 0.000000
                            }
                        }
                    }
                }
            }
            JOINT RightShoulder
            {
                OFFSET -7.065357 33.973492 -0.192664
                CHANNELS 3 Zrotation Xrotation Yrotation
                JOINT RightArm
                {
                    OFFSET -21.527611 0.000000 0.000000
                    CHANNELS 3 Zrotation Xrotation Yrotation
                    JOINT RightForeArm
                    {
                        OFFSET -56.353916 0.000000 0.000000
                        CHANNELS 3 Zrotation Xrotation Yrotation
                        JOINT RightHand
                        {
                            OFFSET -47.774071 0.000000 0.000000
                            CHANNELS 3 Zrotation Xrotation Yrotation
                            End Site
                            {
                                OFFSET -26.556021 0.000000 0.000000
                            }
                        }
                    }
                }
            }
        }
    }
    JOINT LeftUpLeg
    {
        OFFSET 17.704014 0.000000 0.000000
        CHANNELS 3 Zrotation Xrotation Yrotation
        JOINT LeftLeg
        {
            OFFSET -0.000000 -81.181816 0.000000
            CHANNELS 3 Zrotation Xrotation Yrotation
            JOINT LeftFoot
            {
                OFFSET -0.000000 -62.821102 0.000000
                CHANNELS 3 Zrotation Xrotation Yrotation
                JOINT LeftToeBase
                {
                    OFFSET -0.000000 -11.507608 26.556021
                    CHANNELS 3 Zrotation Xrotation Yrotation
                    End Site
                    {
                        OFFSET -0.000000 0.000000 7.081605
                    }
                }
            }
        }
    }
    JOINT RightUpLeg
    {
        OFFSET -17.704014 0.000000 0.000000
        CHANNELS 3 Zrotation Xrotation Yrotation
        JOINT RightLeg
        {
            OFFSET -0.000000 -81.181816 0.000000
            CHANNELS 3 Zrotation Xrotation Yrotation
            JOINT RightFoot
            {
                OFFSET -0.000000 -62.821102 0.000000
                CHANNELS 3 Zrotation Xrotation Yrotation
                JOINT RightToeBase
                {
                    OFFSET -0.000000 -11.507608 26.556021
                    CHANNELS 3 Zrotation Xrotation Yrotation
                    End Site
                    {
                        OFFSET -0.000000 0.000000 7.081605
                    }
                }
            }
        }
    }
}
MOTION
Frames:    10
Frame Time:    0.008333
7.082807    156.537476    -104.710030    2.306985    -9.078263    90.545967    0.441214    -1.827056    6.111745    -11.016980    4.475469    2.466451    -2.415268    -4.722341    -18.693268    13.312920    0.349170    -17.213671    10.681836    -0.151120    -19.630018    -26.319777    23.370659    -74.893440    -29.498198    8.971874    -86.829926    -0.973042    -19.682081    -7.945549    -17.047987    -4.819490    -1.259347    8.258307    -3.828382    30.437529    -11.883252    -20.805216    3.021792    0.132244    -20.486000    22.722960    23.364029    -18.206150    -28.400984    -6.647635    27.546892    -33.840351    -8.963331    -20.360802    34.318523    0.000000    0.000000    0.000000    -11.456620    -0.837200    -28.849340    10.092874    25.984428    -20.223669    1.324635    -0.392151    -31.082827    0.000000    0.000000    0.000000    
7.095005    156.482361    -104.902206    2.280545    -9.068451    89.783066    0.379924    -1.386810    6.341336    -10.970036    3.830559    2.480477    -2.143760    -5.052460    -18.687759    12.925332    0.834082    -17.360157    10.764108    -0.118072    -19.858707    -26.371643    23.605492    -74.982452    -29.394972    8.833784    -86.653290    -0.260854    -19.667751    -7.762151    -16.883781    -4.522226    -1.846526    8.343186    -4.447978    31.465630    -11.711677    -20.619583    3.424192    -0.042054    -20.298409    22.847979    23.322931    -17.939442    -28.299381    -6.686912    27.856916    -33.607346    -8.697835    -20.641893    34.627792    0.000000    0.000000    0.000000    -11.610325    -1.037611    -28.977251    9.874290    26.113091    -19.906466    1.396170    -0.397671    -30.560448    0.000000    0.000000    0.000000    
7.098251    156.424515    -105.073761    2.233104    -9.067325    88.997650    0.390865    -1.521091    6.292001    -10.902324    3.980919    2.475830    -2.039768    -5.216352    -18.520346    12.845316    0.986852    -17.229221    10.818190    -0.021744    -19.662975    -26.118582    23.602535    -75.222458    -28.782768    8.505967    -86.731926    0.267687    -19.432861    -7.051046    -16.831993    -4.575213    -1.667840    8.501863    -5.306489    32.149582    -11.471807    -20.418612    3.736619    -0.169504    -20.098717    23.005854    23.317539    -17.696863    -28.132137    -6.737252    28.192232    -33.534683    -8.284653    -20.835278    35.036388    0.000000    0.000000    0.000000    -11.790628    -1.241133    -28.794973    9.933232    26.182306    -19.766760    1.406801    -0.429255    -30.239498    0.000000    0.000000    0.000000    
7.105792    156.371017    -105.265472    2.187346    -9.056163    88.220047    0.361517    -1.505233    6.270918    -10.817513    3.936049    2.461855    -1.868894    -5.444949    -18.370810    12.672814    1.197035    -17.147438    10.867194    -0.021835    -19.611042    -26.252207    23.563837    -75.262459    -28.788500    8.514760    -86.452660    1.174375    -19.345268    -6.823327    -16.757399    -4.597938    -1.699302    8.699927    -6.219315    32.999371    -11.106449    -20.211622    4.070597    -0.324349    -19.901794    23.040537    23.296259    -17.434881    -28.003801    -6.846432    28.548891    -33.417469    -7.820765    -21.149889    35.582390    0.000000    0.000000    0.000000    -11.981342    -1.447308    -28.745068    9.911075    26.274868    -19.546926    1.448045    -0.438775    -29.856424    0.000000    0.000000    0.000000    
7.087592    156.311859    -105.460213    2.193741    -9.022861    87.363289    0.365502    -1.409028    6.303604    -10.834411    3.870253    2.467312    -1.714867    -5.621802    -18.245529    12.583715    1.406989    -17.078146    10.913371    -0.048626    -19.663687    -26.288528    23.550552    -75.222946    -28.647497    8.374196    -86.276779    1.691217    -19.280024    -6.651296    -16.649229    -4.795096    -1.603914    8.872194    -6.933007    33.696907    -10.758648    -19.941248    4.411478    -0.472001    -19.641298    23.192127    23.255226    -17.089874    -27.766342    -6.868575    28.826805    -33.247326    -7.517174    -21.379194    35.890099    0.000000    0.000000    0.000000    -12.199683    -1.655101    -28.491516    9.947870    26.386112    -19.334476    1.492724    -0.479443    -29.587990    0.000000    0.000000    0.000000    
7.121213    156.260284    -105.646362    2.142256    -9.012327    86.575005    0.369351    -1.499851    6.210267    -10.809880    3.908822    2.438881    -1.388294    -5.617945    -18.054127    12.317998    1.369743    -16.971981    10.939037    -0.076619    -19.714430    -26.336018    23.545244    -75.092186    -28.488689    8.264489    -86.118675    2.411548    -19.186213    -6.444873    -16.510088    -4.395429    -1.758973    9.051786    -7.982005    34.982117    -10.574682    -19.850834    4.563948    -0.485312    -19.547445    23.364315    23.234587    -16.810949    -27.588831    -6.907746    29.093052    -33.157806    -7.184938    -21.657860    36.291504    0.000000    0.000000    0.000000    -12.369671    -1.859639    -28.353323    9.947896    26.442730    -19.055428    1.527320    -0.485596    -29.338566    0.000000    0.000000    0.000000    
7.153541    156.204697    -105.859993    2.084791    -9.016938    85.752800    0.416040    -1.580856    6.149995    -10.783175    3.960700    2.422402    -1.240176    -5.764221    -17.897945    12.225522    1.551650    -16.867123    10.965520    -0.064448    -19.748934    -26.414513    23.476065    -75.053688    -28.286232    8.231614    -85.861458    3.106385    -18.928841    -6.326428    -16.411549    -4.339252    -1.711508    9.248736    -8.850080    35.915070    -10.299927    -19.647017    4.821489    -0.547888    -19.344324    23.450302    23.232269    -16.521568    -27.342819    -6.942226    29.360544    -33.043148    -6.835799    -21.925592    36.629120    0.000000    0.000000    0.000000    -12.534984    -2.083031    -28.146372    9.968494    26.490347    -18.964306    1.592582    -0.471316    -28.932453    0.000000    0.000000    0.000000    
7.155527    156.149521    -106.055817    2.033173    -9.017617    84.899887    0.485644    -1.620669    6.102440    -10.818109    3.984076    2.409458    -1.500961    -5.627531    -17.860329    12.814007    1.572142    -16.706289    10.977880    -0.039792    -19.797367    -26.226839    23.495106    -75.075165    -27.904430    7.896255    -85.793617    3.548049    -18.859913    -6.202321    -16.312536    -4.262481    -1.635298    9.469717    -9.647937    36.840908    -10.099172    -19.474747    5.066092    -0.641912    -19.178484    23.578659    23.214968    -16.192719    -27.105345    -7.010499    29.629433    -32.906185    -6.340086    -22.208313    37.176403    0.000000    0.000000    0.000000    -12.685789    -2.334621    -27.936602    9.961872    26.547394    -18.810503    1.633345    -0.459257    -28.577196    0.000000    0.000000    0.000000    
7.162773    156.088776    -106.240753    1.972049    -9.009029    84.049538    0.425691    -1.681944    6.022906    -10.671780    4.032387    2.382564    -1.395873    -5.812492    -17.719055    12.741661    1.775887    -16.608377    10.962980    -0.038579    -19.808647    -26.253447    23.456921    -75.079765    -27.680941    7.737307    -85.524109    4.090892    -18.691940    -6.077608    -16.220110    -4.509923    -1.371532    9.646630    -10.346393    37.521523    -9.735398    -19.318439    5.367002    -0.801724    -19.045412    23.712347    23.202724    -15.930387    -26.847147    -7.063142    29.938126    -32.744312    -6.016955    -22.442112    37.491730    0.000000    0.000000    0.000000    -12.833952    -2.590808    -27.636322    9.991222    26.592188    -18.710320    1.700472    -0.480052    -28.246220    0.000000    0.000000    0.000000    
7.166320    156.022125    -106.451729    1.913733    -9.003657    83.166580    0.440120    -1.716627    5.959722    -10.605429    4.051924    2.360847    -1.349990    -5.944682    -17.575968    12.783450    1.954250    -16.480665    10.945485    -0.006233    -19.865128    -26.103088    23.472786    -75.114647    -27.450443    7.328665    -85.404961    4.672668    -18.824200    -5.872156    -16.154366    -4.822136    -1.082781    9.882721    -10.996942    38.204285    -9.355078    -19.068031    5.655519    -1.035385    -18.836472    23.809763    23.191267    -15.652620    -26.564394    -7.129231    30.236389    -32.544411    -5.683650    -22.670465    37.784336    0.000000    0.000000    0.000000    -12.984540    -2.865293    -27.316618    10.008332    26.638199    -18.814154    1.774221    -0.471245    -27.702681    0.000000    0.000000    0.000000    
